<svg xmlns="http://www.w3.org/2000/svg" xmlns:xlink="http://www.w3.org/1999/xlink" version="1.1"
	x="0px" y="0px" viewBox="0 0 96 120" style="enable-background:new 0 0 96 96;"
	xml:space="preserve">
	<path
	fill="#fff" 
	d="M46.77,27.334v-8.953c0-0.679,0.55-1.23,1.23-1.23s1.23,0.55,1.23,1.23v8.953c0,0.679-0.55,1.23-1.23,1.23  S46.77,28.013,46.77,27.334z M76.214,44.852c0.209,0,0.42-0.053,0.614-0.165l7.753-4.477c0.588-0.339,0.79-1.092,0.45-1.68  c-0.339-0.588-1.091-0.79-1.68-0.45l-7.753,4.477c-0.588,0.339-0.79,1.092-0.45,1.68C75.375,44.632,75.789,44.852,76.214,44.852z   M63.673,32.763c0.194,0.112,0.405,0.165,0.614,0.165c0.425,0,0.838-0.221,1.066-0.615l4.477-7.753c0.34-0.588,0.138-1.34-0.45-1.68  c-0.588-0.341-1.34-0.138-1.68,0.45l-4.477,7.753C62.884,31.671,63.085,32.424,63.673,32.763z M30.647,32.313  c0.228,0.395,0.641,0.615,1.066,0.615c0.209,0,0.42-0.053,0.614-0.165c0.588-0.339,0.79-1.092,0.45-1.68L28.3,23.33  c-0.339-0.588-1.09-0.791-1.68-0.45c-0.588,0.339-0.79,1.092-0.45,1.68L30.647,32.313z M11.42,40.21l7.753,4.477  c0.194,0.112,0.405,0.165,0.614,0.165c0.425,0,0.838-0.221,1.066-0.615c0.34-0.588,0.138-1.34-0.45-1.68l-7.753-4.477  c-0.588-0.34-1.34-0.137-1.68,0.45C10.63,39.119,10.831,39.871,11.42,40.21z M93.5,59.911c0,0.679-0.55,1.23-1.23,1.23H3.73  c-0.679,0-1.23-0.55-1.23-1.23s0.55-1.23,1.23-1.23h20.293C25.278,46.473,35.593,37.073,48,37.073s22.722,9.4,23.978,21.608H92.27  C92.95,58.681,93.5,59.231,93.5,59.911z M26.5,58.681h43.001C68.257,47.844,59.055,39.533,48,39.533  C36.944,39.533,27.743,47.844,26.5,58.681z M78.021,67.535H46.203c-0.679,0-1.23,0.55-1.23,1.23s0.55,1.23,1.23,1.23h31.818  c0.679,0,1.23-0.55,1.23-1.23S78.701,67.535,78.021,67.535z M42.606,76.389H28.631c-0.679,0-1.23,0.55-1.23,1.23  s0.55,1.23,1.23,1.23h13.975c0.679,0,1.23-0.55,1.23-1.23S43.286,76.389,42.606,76.389z M37.749,68.765c0-0.679-0.55-1.23-1.23-1.23  H17.979c-0.679,0-1.23,0.55-1.23,1.23s0.55,1.23,1.23,1.23h18.541C37.199,69.994,37.749,69.444,37.749,68.765z M67.369,76.389  h-15.77c-0.679,0-1.23,0.55-1.23,1.23s0.55,1.23,1.23,1.23h15.77c0.679,0,1.23-0.55,1.23-1.23S68.048,76.389,67.369,76.389z"/>
</svg>